<svg id="container" width="584" xmlns="http://www.w3.org/2000/svg" viewBox="0 0 584 880" height="880" role="graphics-document document" aria-roledescription="gantt"><style>#container{font-family:"trebuchet ms",verdana,arial,sans-serif;font-size:16px;fill:#333;}@keyframes edge-animation-frame{from{stroke-dashoffset:0;}}@keyframes dash{to{stroke-dashoffset:0;}}#container .edge-animation-slow{stroke-dasharray:9,5!important;stroke-dashoffset:900;animation:dash 50s linear infinite;stroke-linecap:round;}#container .edge-animation-fast{stroke-dasharray:9,5!important;stroke-dashoffset:900;animation:dash 20s linear infinite;stroke-linecap:round;}#container .error-icon{fill:#552222;}#container .error-text{fill:#552222;stroke:#552222;}#container .edge-thickness-normal{stroke-width:1px;}#container .edge-thickness-thick{stroke-width:3.5px;}#container .edge-pattern-solid{stroke-dasharray:0;}#container .edge-thickness-invisible{stroke-width:0;fill:none;}#container .edge-pattern-dashed{stroke-dasharray:3;}#container .edge-pattern-dotted{stroke-dasharray:2;}#container .marker{fill:#333333;stroke:#333333;}#container .marker.cross{stroke:#333333;}#container svg{font-family:"trebuchet ms",verdana,arial,sans-serif;font-size:16px;}#container p{margin:0;}#container .mermaid-main-font{font-family:"trebuchet ms",verdana,arial,sans-serif;}#container .exclude-range{fill:#eeeeee;}#container .section{stroke:none;opacity:0.2;}#container .section0{fill:rgba(102, 102, 255, 0.49);}#container .section2{fill:#fff400;}#container .section1,#container .section3{fill:white;opacity:0.2;}#container .sectionTitle0{fill:#333;}#container .sectionTitle1{fill:#333;}#container .sectionTitle2{fill:#333;}#container .sectionTitle3{fill:#333;}#container .sectionTitle{text-anchor:start;font-family:"trebuchet ms",verdana,arial,sans-serif;}#container .grid .tick{stroke:lightgrey;opacity:0.8;shape-rendering:crispEdges;}#container .grid .tick text{font-family:"trebuchet ms",verdana,arial,sans-serif;fill:#333;}#container .grid path{stroke-width:0;}#container .today{fill:none;stroke:red;stroke-width:2px;}#container .task{stroke-width:2;}#container .taskText{text-anchor:middle;font-family:"trebuchet ms",verdana,arial,sans-serif;}#container .taskTextOutsideRight{fill:black;text-anchor:start;font-family:"trebuchet ms",verdana,arial,sans-serif;}#container .taskTextOutsideLeft{fill:black;text-anchor:end;}#container .task.clickable{cursor:pointer;}#container .taskText.clickable{cursor:pointer;fill:#003163!important;font-weight:bold;}#container .taskTextOutsideLeft.clickable{cursor:pointer;fill:#003163!important;font-weight:bold;}#container .taskTextOutsideRight.clickable{cursor:pointer;fill:#003163!important;font-weight:bold;}#container .taskText0,#container .taskText1,#container .taskText2,#container .taskText3{fill:white;}#container .task0,#container .task1,#container .task2,#container .task3{fill:#8a90dd;stroke:#534fbc;}#container .taskTextOutside0,#container .taskTextOutside2{fill:black;}#container .taskTextOutside1,#container .taskTextOutside3{fill:black;}#container .active0,#container .active1,#container .active2,#container .active3{fill:#bfc7ff;stroke:#534fbc;}#container .activeText0,#container .activeText1,#container .activeText2,#container .activeText3{fill:black!important;}#container .done0,#container .done1,#container .done2,#container .done3{stroke:grey;fill:lightgrey;stroke-width:2;}#container .doneText0,#container .doneText1,#container .doneText2,#container .doneText3{fill:black!important;}#container .crit0,#container .crit1,#container .crit2,#container .crit3{stroke:#ff8888;fill:red;stroke-width:2;}#container .activeCrit0,#container .activeCrit1,#container .activeCrit2,#container .activeCrit3{stroke:#ff8888;fill:#bfc7ff;stroke-width:2;}#container .doneCrit0,#container .doneCrit1,#container .doneCrit2,#container .doneCrit3{stroke:#ff8888;fill:lightgrey;stroke-width:2;cursor:pointer;shape-rendering:crispEdges;}#container .milestone{transform:rotate(45deg) scale(0.8,0.8);}#container .milestoneText{font-style:italic;}#container .doneCritText0,#container .doneCritText1,#container .doneCritText2,#container .doneCritText3{fill:black!important;}#container .vert{stroke:navy;}#container .vertText{font-size:15px;text-anchor:middle;fill:navy!important;}#container .activeCritText0,#container .activeCritText1,#container .activeCritText2,#container .activeCritText3{fill:black!important;}#container .titleText{text-anchor:middle;font-size:18px;fill:#333;font-family:"trebuchet ms",verdana,arial,sans-serif;}#container :root{--mermaid-font-family:"trebuchet ms",verdana,arial,sans-serif;}</style><g></g><g><rect id="exclude-2025-09-06" x="118" y="35" width="3" height="795" transform-origin="118.5px 440px" class="exclude-range"></rect><rect id="exclude-2025-09-13" x="129" y="35" width="3" height="795" transform-origin="129.5px 460px" class="exclude-range"></rect><rect id="exclude-2025-09-20" x="140" y="35" width="3" height="795" transform-origin="140.5px 480px" class="exclude-range"></rect><rect id="exclude-2025-09-27" x="151" y="35" width="3" height="795" transform-origin="151.5px 500px" class="exclude-range"></rect><rect id="exclude-2025-10-04" x="161" y="35" width="4" height="795" transform-origin="162px 520px" class="exclude-range"></rect><rect id="exclude-2025-10-11" x="172" y="35" width="3" height="795" transform-origin="173px 540px" class="exclude-range"></rect><rect id="exclude-2025-10-18" x="183" y="35" width="3" height="795" transform-origin="184px 560px" class="exclude-range"></rect><rect id="exclude-2025-10-25" x="194" y="35" width="3" height="795" transform-origin="195px 580px" class="exclude-range"></rect><rect id="exclude-2025-11-01" x="205" y="35" width="3" height="795" transform-origin="206px 600px" class="exclude-range"></rect><rect id="exclude-2025-11-08" x="216" y="35" width="3" height="795" transform-origin="217px 620px" class="exclude-range"></rect><rect id="exclude-2025-11-15" x="227" y="35" width="3" height="795" transform-origin="227.5px 640px" class="exclude-range"></rect><rect id="exclude-2025-11-22" x="238" y="35" width="3" height="795" transform-origin="238.5px 660px" class="exclude-range"></rect><rect id="exclude-2025-11-29" x="249" y="35" width="3" height="795" transform-origin="249.5px 680px" class="exclude-range"></rect><rect id="exclude-2025-12-06" x="260" y="35" width="3" height="795" transform-origin="260.5px 700px" class="exclude-range"></rect><rect id="exclude-2025-12-13" x="271" y="35" width="3" height="795" transform-origin="271.5px 720px" class="exclude-range"></rect><rect id="exclude-2025-12-20" x="281" y="35" width="4" height="795" transform-origin="282px 740px" class="exclude-range"></rect><rect id="exclude-2025-12-27" x="292" y="35" width="3" height="795" transform-origin="293px 760px" class="exclude-range"></rect><rect id="exclude-2026-01-03" x="303" y="35" width="3" height="795" transform-origin="304px 780px" class="exclude-range"></rect><rect id="exclude-2026-01-10" x="314" y="35" width="3" height="795" transform-origin="315px 800px" class="exclude-range"></rect><rect id="exclude-2026-01-17" x="325" y="35" width="3" height="795" transform-origin="326px 820px" class="exclude-range"></rect><rect id="exclude-2026-01-24" x="336" y="35" width="3" height="795" transform-origin="337px 840px" class="exclude-range"></rect><rect id="exclude-2026-01-31" x="347" y="35" width="3" height="795" transform-origin="347.5px 860px" class="exclude-range"></rect><rect id="exclude-2026-02-07" x="358" y="35" width="3" height="795" transform-origin="358.5px 880px" class="exclude-range"></rect><rect id="exclude-2026-02-14" x="369" y="35" width="3" height="795" transform-origin="369.5px 900px" class="exclude-range"></rect><rect id="exclude-2026-02-21" x="380" y="35" width="3" height="795" transform-origin="380.5px 920px" class="exclude-range"></rect><rect id="exclude-2026-02-28" x="391" y="35" width="3" height="795" transform-origin="391.5px 940px" class="exclude-range"></rect><rect id="exclude-2026-03-07" x="401" y="35" width="4" height="795" transform-origin="402px 960px" class="exclude-range"></rect><rect id="exclude-2026-03-14" x="412" y="35" width="3" height="795" transform-origin="413px 980px" class="exclude-range"></rect><rect id="exclude-2026-03-21" x="423" y="35" width="3" height="795" transform-origin="424px 1000px" class="exclude-range"></rect><rect id="exclude-2026-03-28" x="434" y="35" width="3" height="795" transform-origin="435px 1020px" class="exclude-range"></rect><rect id="exclude-2026-04-04" x="445" y="35" width="3" height="795" transform-origin="446px 1040px" class="exclude-range"></rect><rect id="exclude-2026-04-11" x="456" y="35" width="3" height="795" transform-origin="457px 1060px" class="exclude-range"></rect><rect id="exclude-2026-04-18" x="467" y="35" width="3" height="795" transform-origin="467.5px 1080px" class="exclude-range"></rect><rect id="exclude-2026-04-25" x="478" y="35" width="3" height="795" transform-origin="478.5px 1100px" class="exclude-range"></rect><rect id="exclude-2026-05-02" x="489" y="35" width="3" height="795" transform-origin="489.5px 1120px" class="exclude-range"></rect><rect id="exclude-2026-05-09" x="500" y="35" width="3" height="795" transform-origin="500.5px 1140px" class="exclude-range"></rect></g><g class="grid" transform="translate(110, 830)" fill="none" font-size="10" font-family="sans-serif" text-anchor="middle"><path class="domain" stroke="currentColor" d="M0.5,-795V0.5H399.5V-795"></path><g class="tick" opacity="1" transform="translate(0.5,0)"><line stroke="currentColor" y2="-795"></line><text fill="#000" y="3" dy="1em" stroke="none" font-size="10" style="text-anchor: middle;">Sep 01</text></g><g class="tick" opacity="1" transform="translate(47.5,0)"><line stroke="currentColor" y2="-795"></line><text fill="#000" y="3" dy="1em" stroke="none" font-size="10" style="text-anchor: middle;">Oct 01</text></g><g class="tick" opacity="1" transform="translate(95.5,0)"><line stroke="currentColor" y2="-795"></line><text fill="#000" y="3" dy="1em" stroke="none" font-size="10" style="text-anchor: middle;">Nov 01</text></g><g class="tick" opacity="1" transform="translate(142.5,0)"><line stroke="currentColor" y2="-795"></line><text fill="#000" y="3" dy="1em" stroke="none" font-size="10" style="text-anchor: middle;">Dec 01</text></g><g class="tick" opacity="1" transform="translate(190.5,0)"><line stroke="currentColor" y2="-795"></line><text fill="#000" y="3" dy="1em" stroke="none" font-size="10" style="text-anchor: middle;">Jan 01</text></g><g class="tick" opacity="1" transform="translate(238.5,0)"><line stroke="currentColor" y2="-795"></line><text fill="#000" y="3" dy="1em" stroke="none" font-size="10" style="text-anchor: middle;">Feb 01</text></g><g class="tick" opacity="1" transform="translate(282.5,0)"><line stroke="currentColor" y2="-795"></line><text fill="#000" y="3" dy="1em" stroke="none" font-size="10" style="text-anchor: middle;">Mar 01</text></g><g class="tick" opacity="1" transform="translate(330.5,0)"><line stroke="currentColor" y2="-795"></line><text fill="#000" y="3" dy="1em" stroke="none" font-size="10" style="text-anchor: middle;">Apr 01</text></g><g class="tick" opacity="1" transform="translate(377.5,0)"><line stroke="currentColor" y2="-795"></line><text fill="#000" y="3" dy="1em" stroke="none" font-size="10" style="text-anchor: middle;">May 01</text></g></g><g><rect x="0" y="48" width="546.5" height="20" class="section section0"></rect><rect x="0" y="68" width="546.5" height="20" class="section section0"></rect><rect x="0" y="88" width="546.5" height="20" class="section section1"></rect><rect x="0" y="108" width="546.5" height="20" class="section section1"></rect><rect x="0" y="128" width="546.5" height="20" class="section section1"></rect><rect x="0" y="148" width="546.5" height="20" class="section section1"></rect><rect x="0" y="168" width="546.5" height="20" class="section section1"></rect><rect x="0" y="188" width="546.5" height="20" class="section section2"></rect><rect x="0" y="208" width="546.5" height="20" class="section section2"></rect><rect x="0" y="228" width="546.5" height="20" class="section section2"></rect><rect x="0" y="248" width="546.5" height="20" class="section section2"></rect><rect x="0" y="268" width="546.5" height="20" class="section section2"></rect><rect x="0" y="288" width="546.5" height="20" class="section section3"></rect><rect x="0" y="308" width="546.5" height="20" class="section section3"></rect><rect x="0" y="328" width="546.5" height="20" class="section section3"></rect><rect x="0" y="348" width="546.5" height="20" class="section section3"></rect><rect x="0" y="368" width="546.5" height="20" class="section section3"></rect><rect x="0" y="388" width="546.5" height="20" class="section section0"></rect><rect x="0" y="408" width="546.5" height="20" class="section section0"></rect><rect x="0" y="428" width="546.5" height="20" class="section section0"></rect><rect x="0" y="448" width="546.5" height="20" class="section section0"></rect><rect x="0" y="468" width="546.5" height="20" class="section section0"></rect><rect x="0" y="488" width="546.5" height="20" class="section section0"></rect><rect x="0" y="508" width="546.5" height="20" class="section section1"></rect><rect x="0" y="528" width="546.5" height="20" class="section section1"></rect><rect x="0" y="548" width="546.5" height="20" class="section section1"></rect><rect x="0" y="568" width="546.5" height="20" class="section section1"></rect><rect x="0" y="588" width="546.5" height="20" class="section section1"></rect><rect x="0" y="608" width="546.5" height="20" class="section section1"></rect><rect x="0" y="628" width="546.5" height="20" class="section section2"></rect><rect x="0" y="648" width="546.5" height="20" class="section section2"></rect><rect x="0" y="668" width="546.5" height="20" class="section section2"></rect><rect x="0" y="688" width="546.5" height="20" class="section section2"></rect><rect x="0" y="708" width="546.5" height="20" class="section section2"></rect><rect x="0" y="728" width="546.5" height="20" class="section section3"></rect><rect x="0" y="748" width="546.5" height="20" class="section section3"></rect><rect x="0" y="768" width="546.5" height="20" class="section section3"></rect><rect x="0" y="788" width="546.5" height="20" class="section section0"></rect><rect x="0" y="808" width="546.5" height="20" class="section section0"></rect></g><g><rect id="init1" rx="3" ry="3" x="110" y="50" width="19" height="16" transform-origin="121px 58px" class="task crit0"></rect><rect id="init2" rx="3" ry="3" x="132" y="70" width="8" height="16" transform-origin="137.5px 78px" class="task task0"></rect><rect id="a-plan" rx="3" ry="3" x="143" y="90" width="3" height="16" transform-origin="144.5px 98px" class="task task1"></rect><rect id="a-des" rx="3" ry="3" x="146" y="110" width="3" height="16" transform-origin="147.5px 118px" class="task task1"></rect><rect id="a-dev" rx="3" ry="3" x="149" y="130" width="19" height="16" transform-origin="158.5px 138px" class="task active1"></rect><rect id="a-test" rx="3" ry="3" x="168" y="150" width="3" height="16" transform-origin="169.5px 158px" class="task task1"></rect><rect id="a-eval" rx="3" ry="3" x="171" y="170" width="1" height="16" transform-origin="173px 178px" class="task task1"></rect><rect id="w-plan" rx="3" ry="3" x="175" y="190" width="2" height="16" transform-origin="176px 198px" class="task task2"></rect><rect id="w-des" rx="3" ry="3" x="177" y="210" width="3" height="16" transform-origin="178.5px 218px" class="task task2"></rect><rect id="w-dev" rx="3" ry="3" x="180" y="230" width="20" height="16" transform-origin="190px 238px" class="task active2"></rect><rect id="w-test" rx="3" ry="3" x="200" y="250" width="4" height="16" transform-origin="202px 258px" class="task task2"></rect><rect id="w-eval" rx="3" ry="3" x="204" y="270" width="1" height="16" transform-origin="206px 278px" class="task task2"></rect><rect id="f-plan" rx="3" ry="3" x="208" y="290" width="2" height="16" transform-origin="209px 298px" class="task task3"></rect><rect id="f-des" rx="3" ry="3" x="210" y="310" width="3" height="16" transform-origin="211.5px 318px" class="task task3"></rect><rect id="f-dev" rx="3" ry="3" x="213" y="330" width="14" height="16" transform-origin="221.5px 338px" class="task active3"></rect><rect id="f-test" rx="3" ry="3" x="230" y="350" width="3" height="16" transform-origin="231.5px 358px" class="task task3"></rect><rect id="f-eval" rx="3" ry="3" x="233" y="370" width="2" height="16" transform-origin="234px 378px" class="task task3"></rect><rect id="i-res" rx="3" ry="3" x="235" y="390" width="7" height="16" transform-origin="238.5px 398px" class="task crit0"></rect><rect id="i-plan" rx="3" ry="3" x="242" y="410" width="2" height="16" transform-origin="243px 418px" class="task task0"></rect><rect id="i-des" rx="3" ry="3" x="244" y="430" width="3" height="16" transform-origin="245.5px 438px" class="task task0"></rect><rect id="i-dev" rx="3" ry="3" x="247" y="450" width="31" height="16" transform-origin="262.5px 458px" class="task active0"></rect><rect id="i-test" rx="3" ry="3" x="278" y="470" width="8" height="16" transform-origin="282px 478px" class="task task0"></rect><rect id="i-eval" rx="3" ry="3" x="286" y="490" width="2" height="16" transform-origin="287px 498px" class="task task0"></rect><rect id="r-res" rx="3" ry="3" x="288" y="510" width="4" height="16" transform-origin="291.5px 518px" class="task crit1"></rect><rect id="r-plan" rx="3" ry="3" x="295" y="530" width="2" height="16" transform-origin="296px 538px" class="task task1"></rect><rect id="r-des" rx="3" ry="3" x="297" y="550" width="3" height="16" transform-origin="298.5px 558px" class="task task1"></rect><rect id="r-dev" rx="3" ry="3" x="300" y="570" width="22" height="16" transform-origin="311px 578px" class="task active1"></rect><rect id="r-test" rx="3" ry="3" x="322" y="590" width="3" height="16" transform-origin="325px 598px" class="task task1"></rect><rect id="r-eval" rx="3" ry="3" x="328" y="610" width="2" height="16" transform-origin="329px 618px" class="task task1"></rect><rect id="v-plan" rx="3" ry="3" x="330" y="630" width="1" height="16" transform-origin="330.5px 638px" class="task task2"></rect><rect id="v-des" rx="3" ry="3" x="331" y="650" width="3" height="16" transform-origin="332.5px 658px" class="task task2"></rect><rect id="v-dev" rx="3" ry="3" x="334" y="670" width="19" height="16" transform-origin="343.5px 678px" class="task active2"></rect><rect id="v-test" rx="3" ry="3" x="353" y="690" width="3" height="16" transform-origin="354.5px 698px" class="task task2"></rect><rect id="v-eval" rx="3" ry="3" x="356" y="710" width="2" height="16" transform-origin="358.5px 718px" class="task task2"></rect><rect id="p-dev" rx="3" ry="3" x="361" y="730" width="6" height="16" transform-origin="364px 738px" class="task active3"></rect><rect id="p-test" rx="3" ry="3" x="367" y="750" width="8" height="16" transform-origin="371px 758px" class="task task3"></rect><rect id="p-eval" rx="3" ry="3" x="375" y="770" width="3" height="16" transform-origin="376.5px 778px" class="task task3"></rect><rect id="int" rx="3" ry="3" x="470" y="790" width="14" height="16" transform-origin="477px 798px" class="task crit0"></rect><rect id="wrap" rx="3" ry="3" x="481" y="810" width="28" height="16" transform-origin="495px 818px" class="task crit0"></rect><text id="init1-text" font-size="12" x="134" y="62" class="taskTextOutsideRight taskTextOutside0  critText0 width-112.9127197265625">Research &amp; planning              </text><text id="init2-text" font-size="12" x="145" y="82" class="taskTextOutsideRight taskTextOutside0  width-147.3289794921875">Initial design (architecture)    </text><text id="a-plan-text" font-size="12" x="151" y="102" class="taskTextOutsideRight taskTextOutside1  width-23.875">Plan                             </text><text id="a-des-text" font-size="12" x="154" y="122" class="taskTextOutsideRight taskTextOutside1  width-129.94085693359375">Design (schema, routes)          </text><text id="a-dev-text" font-size="12" x="173" y="142" class="taskTextOutsideRight taskTextOutside1 activeText1 width-44.21875">Develop                          </text><text id="a-test-text" font-size="12" x="176" y="162" class="taskTextOutsideRight taskTextOutside1  width-22.6881103515625">Test                             </text><text id="a-eval-text" font-size="12" x="177" y="182" class="taskTextOutsideRight taskTextOutside1  width-46.03125">Evaluate                         </text><text id="w-plan-text" font-size="12" x="182" y="202" class="taskTextOutsideRight taskTextOutside2  width-23.875">Plan                             </text><text id="w-des-text" font-size="12" x="185" y="222" class="taskTextOutsideRight taskTextOutside2  width-36.53125">Design                           </text><text id="w-dev-text" font-size="12" x="205" y="242" class="taskTextOutsideRight taskTextOutside2 activeText2 width-141.23297119140625">Develop CRUD, share, fork        </text><text id="w-test-text" font-size="12" x="209" y="262" class="taskTextOutsideRight taskTextOutside2  width-22.6881103515625">Test                             </text><text id="w-eval-text" font-size="12" x="210" y="282" class="taskTextOutsideRight taskTextOutside2  width-46.03125">Evaluate                         </text><text id="f-plan-text" font-size="12" x="215" y="302" class="taskTextOutsideRight taskTextOutside3  width-23.875">Plan                             </text><text id="f-des-text" font-size="12" x="218" y="322" class="taskTextOutsideRight taskTextOutside3  width-36.53125">Design                           </text><text id="f-dev-text" font-size="12" x="232" y="342" class="taskTextOutsideRight taskTextOutside3 activeText3 width-159.78125">Develop .psc CRUD, mobile UI     </text><text id="f-test-text" font-size="12" x="238" y="362" class="taskTextOutsideRight taskTextOutside3  width-22.6881103515625">Test                             </text><text id="f-eval-text" font-size="12" x="240" y="382" class="taskTextOutsideRight taskTextOutside3  width-46.03125">Evaluate                         </text><text id="i-res-text" font-size="12" x="247" y="402" class="taskTextOutsideRight taskTextOutside0  critText0 width-119.456787109375">Research lexer/parser            </text><text id="i-plan-text" font-size="12" x="249" y="422" class="taskTextOutsideRight taskTextOutside0  width-23.875">Plan                             </text><text id="i-des-text" font-size="12" x="252" y="442" class="taskTextOutsideRight taskTextOutside0  width-59.8603515625">Design AST                       </text><text id="i-dev-text" font-size="12" x="283" y="462" class="taskTextOutsideRight taskTextOutside0 activeText0 width-106.76068115234375">Develop interpreter              </text><text id="i-test-text" font-size="12" x="291" y="482" class="taskTextOutsideRight taskTextOutside0  width-119.47280883789062">Test sample programs             </text><text id="i-eval-text" font-size="12" x="293" y="502" class="taskTextOutsideRight taskTextOutside0  width-46.03125">Evaluate                         </text><text id="r-res-text" font-size="12" x="297" y="522" class="taskTextOutsideRight taskTextOutside1  critText1 width-145.99700927734375">Research Yjs / CRDT model        </text><text id="r-plan-text" font-size="12" x="302" y="542" class="taskTextOutsideRight taskTextOutside1  width-23.875">Plan                             </text><text id="r-des-text" font-size="12" x="305" y="562" class="taskTextOutsideRight taskTextOutside1  width-144.85699462890625">Design (room model, auth)        </text><text id="r-dev-text" font-size="12" x="327" y="582" class="taskTextOutsideRight taskTextOutside1 activeText1 width-140.6129150390625">Develop hook + WS server         </text><text id="r-test-text" font-size="12" x="330" y="602" class="taskTextOutsideRight taskTextOutside1  width-121.2847900390625">Test two-browser sync            </text><text id="r-eval-text" font-size="12" x="335" y="622" class="taskTextOutsideRight taskTextOutside1  width-46.03125">Evaluate                         </text><text id="v-plan-text" font-size="12" x="336" y="642" class="taskTextOutsideRight taskTextOutside2  width-23.875">Plan                             </text><text id="v-des-text" font-size="12" x="339" y="662" class="taskTextOutsideRight taskTextOutside2  width-143.859375">Design FileVersion schema        </text><text id="v-dev-text" font-size="12" x="358" y="682" class="taskTextOutsideRight taskTextOutside2 activeText2 width-157.8450927734375">Develop history drawer + diff    </text><text id="v-test-text" font-size="12" x="361" y="702" class="taskTextOutsideRight taskTextOutside2  width-135.015625">Test restore + attribution       </text><text id="v-eval-text" font-size="12" x="363" y="722" class="taskTextOutsideRight taskTextOutside2  width-46.03125">Evaluate                         </text><text id="p-dev-text" font-size="12" x="372" y="742" class="taskTextOutsideRight taskTextOutside3 activeText3 width-113.859375">Deploy Vercel + Fly.io           </text><text id="p-test-text" font-size="12" x="380" y="762" class="taskTextOutsideRight taskTextOutside3  width-148.671875">Mobile-viewport regression       </text><text id="p-eval-text" font-size="12" x="383" y="782" class="taskTextOutsideRight taskTextOutside3  width-150.5570068359375">Perf measurement &amp; tuning        </text><text id="int-text" font-size="12" x="465" y="802" class="taskTextOutsideLeft taskTextOutside0  critText0">Integration testing              </text><text id="wrap-text" font-size="12" x="476" y="822" class="taskTextOutsideLeft taskTextOutside0  critText0">CritE evaluation writeup         </text></g><g><text dy="0em" x="10" y="70" font-size="12" class="sectionTitle sectionTitle0"><tspan alignment-baseline="central" x="10">Init</tspan></text><text dy="0em" x="10" y="140" font-size="12" class="sectionTitle sectionTitle1"><tspan alignment-baseline="central" x="10">Auth</tspan></text><text dy="0em" x="10" y="240" font-size="12" class="sectionTitle sectionTitle2"><tspan alignment-baseline="central" x="10">Workspaces</tspan></text><text dy="0em" x="10" y="340" font-size="12" class="sectionTitle sectionTitle3"><tspan alignment-baseline="central" x="10">Files</tspan></text><text dy="0em" x="10" y="450" font-size="12" class="sectionTitle sectionTitle0"><tspan alignment-baseline="central" x="10">Interpreter</tspan></text><text dy="0em" x="10" y="570" font-size="12" class="sectionTitle sectionTitle1"><tspan alignment-baseline="central" x="10">Realtime</tspan></text><text dy="0em" x="10" y="680" font-size="12" class="sectionTitle sectionTitle2"><tspan alignment-baseline="central" x="10">Version control</tspan></text><text dy="0em" x="10" y="760" font-size="12" class="sectionTitle sectionTitle3"><tspan alignment-baseline="central" x="10">Platform</tspan></text><text dy="0em" x="10" y="810" font-size="12" class="sectionTitle sectionTitle0"><tspan alignment-baseline="central" x="10">Wrap-up</tspan></text></g><text x="292" y="25" class="titleText">AccountMVP — IA project timeline</text></svg>