<svg id="container" width="584" xmlns="http://www.w3.org/2000/svg" viewBox="0 0 584 802" height="802" role="graphics-document document" aria-roledescription="gantt"><style>#container{font-family:"trebuchet ms",verdana,arial,sans-serif;font-size:16px;fill:#000000;}@keyframes edge-animation-frame{from{stroke-dashoffset:0;}}@keyframes dash{to{stroke-dashoffset:0;}}#container .edge-animation-slow{stroke-dasharray:9,5!important;stroke-dashoffset:900;animation:dash 50s linear infinite;stroke-linecap:round;}#container .edge-animation-fast{stroke-dasharray:9,5!important;stroke-dashoffset:900;animation:dash 20s linear infinite;stroke-linecap:round;}#container .error-icon{fill:#552222;}#container .error-text{fill:#552222;stroke:#552222;}#container .edge-thickness-normal{stroke-width:1px;}#container .edge-thickness-thick{stroke-width:3.5px;}#container .edge-pattern-solid{stroke-dasharray:0;}#container .edge-thickness-invisible{stroke-width:0;fill:none;}#container .edge-pattern-dashed{stroke-dasharray:3;}#container .edge-pattern-dotted{stroke-dasharray:2;}#container .marker{fill:#666;stroke:#666;}#container .marker.cross{stroke:#666;}#container svg{font-family:"trebuchet ms",verdana,arial,sans-serif;font-size:16px;}#container p{margin:0;}#container .mermaid-main-font{font-family:"trebuchet ms",verdana,arial,sans-serif;}#container .exclude-range{fill:#eeeeee;}#container .section{stroke:none;opacity:0.2;}#container .section0{fill:hsl(0, 0%, 73.9215686275%);}#container .section2{fill:hsl(0, 0%, 73.9215686275%);}#container .section1,#container .section3{fill:white;opacity:0.2;}#container .sectionTitle0{fill:#333;}#container .sectionTitle1{fill:#333;}#container .sectionTitle2{fill:#333;}#container .sectionTitle3{fill:#333;}#container .sectionTitle{text-anchor:start;font-family:"trebuchet ms",verdana,arial,sans-serif;}#container .grid .tick{stroke:hsl(0, 0%, 90%);opacity:0.8;shape-rendering:crispEdges;}#container .grid .tick text{font-family:"trebuchet ms",verdana,arial,sans-serif;fill:#000000;}#container .grid path{stroke-width:0;}#container .today{fill:none;stroke:#d42;stroke-width:2px;}#container .task{stroke-width:2;}#container .taskText{text-anchor:middle;font-family:"trebuchet ms",verdana,arial,sans-serif;}#container .taskTextOutsideRight{fill:#333;text-anchor:start;font-family:"trebuchet ms",verdana,arial,sans-serif;}#container .taskTextOutsideLeft{fill:#333;text-anchor:end;}#container .task.clickable{cursor:pointer;}#container .taskText.clickable{cursor:pointer;fill:#003163!important;font-weight:bold;}#container .taskTextOutsideLeft.clickable{cursor:pointer;fill:#003163!important;font-weight:bold;}#container .taskTextOutsideRight.clickable{cursor:pointer;fill:#003163!important;font-weight:bold;}#container .taskText0,#container .taskText1,#container .taskText2,#container .taskText3{fill:white;}#container .task0,#container .task1,#container .task2,#container .task3{fill:#707070;stroke:hsl(0, 0%, 33.9215686275%);}#container .taskTextOutside0,#container .taskTextOutside2{fill:#333;}#container .taskTextOutside1,#container .taskTextOutside3{fill:#333;}#container .active0,#container .active1,#container .active2,#container .active3{fill:#eee;stroke:hsl(0, 0%, 33.9215686275%);}#container .activeText0,#container .activeText1,#container .activeText2,#container .activeText3{fill:#333!important;}#container .done0,#container .done1,#container .done2,#container .done3{stroke:#666;fill:#bbb;stroke-width:2;}#container .doneText0,#container .doneText1,#container .doneText2,#container .doneText3{fill:#333!important;}#container .crit0,#container .crit1,#container .crit2,#container .crit3{stroke:hsl(10.9090909091, 73.3333333333%, 40%);fill:#d42;stroke-width:2;}#container .activeCrit0,#container .activeCrit1,#container .activeCrit2,#container .activeCrit3{stroke:hsl(10.9090909091, 73.3333333333%, 40%);fill:#eee;stroke-width:2;}#container .doneCrit0,#container .doneCrit1,#container .doneCrit2,#container .doneCrit3{stroke:hsl(10.9090909091, 73.3333333333%, 40%);fill:#bbb;stroke-width:2;cursor:pointer;shape-rendering:crispEdges;}#container .milestone{transform:rotate(45deg) scale(0.8,0.8);}#container .milestoneText{font-style:italic;}#container .doneCritText0,#container .doneCritText1,#container .doneCritText2,#container .doneCritText3{fill:#333!important;}#container .vert{stroke:#d42;}#container .vertText{font-size:15px;text-anchor:middle;fill:#d42!important;}#container .activeCritText0,#container .activeCritText1,#container .activeCritText2,#container .activeCritText3{fill:#333!important;}#container .titleText{text-anchor:middle;font-size:18px;fill:#333;font-family:"trebuchet ms",verdana,arial,sans-serif;}#container :root{--mermaid-font-family:"trebuchet ms",verdana,arial,sans-serif;}</style><g></g><g><rect id="exclude-2025-09-06" x="83" y="35" width="4" height="717" transform-origin="84px 401px" class="exclude-range"></rect><rect id="exclude-2025-09-13" x="95" y="35" width="4" height="717" transform-origin="96px 419px" class="exclude-range"></rect><rect id="exclude-2025-09-20" x="107" y="35" width="4" height="717" transform-origin="108px 437px" class="exclude-range"></rect><rect id="exclude-2025-09-27" x="119" y="35" width="3" height="717" transform-origin="120px 455px" class="exclude-range"></rect><rect id="exclude-2025-10-04" x="131" y="35" width="3" height="717" transform-origin="132px 473px" class="exclude-range"></rect><rect id="exclude-2025-10-11" x="143" y="35" width="3" height="717" transform-origin="144px 491px" class="exclude-range"></rect><rect id="exclude-2025-10-18" x="155" y="35" width="3" height="717" transform-origin="155.5px 509px" class="exclude-range"></rect><rect id="exclude-2025-10-25" x="167" y="35" width="3" height="717" transform-origin="167.5px 527px" class="exclude-range"></rect><rect id="exclude-2025-11-01" x="178" y="35" width="4" height="717" transform-origin="179px 545px" class="exclude-range"></rect><rect id="exclude-2025-11-08" x="190" y="35" width="4" height="717" transform-origin="191px 563px" class="exclude-range"></rect><rect id="exclude-2025-11-15" x="202" y="35" width="4" height="717" transform-origin="203px 581px" class="exclude-range"></rect><rect id="exclude-2025-11-22" x="214" y="35" width="3" height="717" transform-origin="215px 599px" class="exclude-range"></rect><rect id="exclude-2025-11-29" x="226" y="35" width="3" height="717" transform-origin="227px 617px" class="exclude-range"></rect><rect id="exclude-2025-12-06" x="238" y="35" width="3" height="717" transform-origin="238.5px 635px" class="exclude-range"></rect><rect id="exclude-2025-12-13" x="250" y="35" width="3" height="717" transform-origin="250.5px 653px" class="exclude-range"></rect><rect id="exclude-2025-12-20" x="261" y="35" width="4" height="717" transform-origin="262px 671px" class="exclude-range"></rect><rect id="exclude-2025-12-27" x="273" y="35" width="4" height="717" transform-origin="274px 689px" class="exclude-range"></rect><rect id="exclude-2026-01-03" x="285" y="35" width="4" height="717" transform-origin="286px 707px" class="exclude-range"></rect><rect id="exclude-2026-01-10" x="297" y="35" width="3" height="717" transform-origin="298px 725px" class="exclude-range"></rect><rect id="exclude-2026-01-17" x="309" y="35" width="3" height="717" transform-origin="310px 743px" class="exclude-range"></rect><rect id="exclude-2026-01-24" x="321" y="35" width="3" height="717" transform-origin="322px 761px" class="exclude-range"></rect><rect id="exclude-2026-01-31" x="333" y="35" width="3" height="717" transform-origin="333.5px 779px" class="exclude-range"></rect><rect id="exclude-2026-02-07" x="345" y="35" width="3" height="717" transform-origin="345.5px 797px" class="exclude-range"></rect><rect id="exclude-2026-02-14" x="356" y="35" width="4" height="717" transform-origin="357px 815px" class="exclude-range"></rect><rect id="exclude-2026-02-21" x="368" y="35" width="4" height="717" transform-origin="369px 833px" class="exclude-range"></rect><rect id="exclude-2026-02-28" x="380" y="35" width="4" height="717" transform-origin="381px 851px" class="exclude-range"></rect><rect id="exclude-2026-03-07" x="392" y="35" width="3" height="717" transform-origin="393px 869px" class="exclude-range"></rect><rect id="exclude-2026-03-14" x="404" y="35" width="3" height="717" transform-origin="405px 887px" class="exclude-range"></rect><rect id="exclude-2026-03-21" x="416" y="35" width="3" height="717" transform-origin="416.5px 905px" class="exclude-range"></rect><rect id="exclude-2026-03-28" x="428" y="35" width="3" height="717" transform-origin="428.5px 923px" class="exclude-range"></rect><rect id="exclude-2026-04-04" x="439" y="35" width="4" height="717" transform-origin="440px 941px" class="exclude-range"></rect><rect id="exclude-2026-04-11" x="451" y="35" width="4" height="717" transform-origin="452px 959px" class="exclude-range"></rect><rect id="exclude-2026-04-18" x="463" y="35" width="4" height="717" transform-origin="464px 977px" class="exclude-range"></rect><rect id="exclude-2026-04-25" x="475" y="35" width="3" height="717" transform-origin="476px 995px" class="exclude-range"></rect><rect id="exclude-2026-05-02" x="487" y="35" width="3" height="717" transform-origin="488px 1013px" class="exclude-range"></rect><rect id="exclude-2026-05-09" x="499" y="35" width="3" height="717" transform-origin="500px 1031px" class="exclude-range"></rect></g><g class="grid" transform="translate(75, 752)" fill="none" font-size="10" font-family="sans-serif" text-anchor="middle"><path class="domain" stroke="currentColor" d="M0.5,-717V0.5H434.5V-717"></path><g class="tick" opacity="1" transform="translate(0.5,0)"><line stroke="currentColor" y2="-717"></line><text fill="#000" y="3" dy="1em" stroke="none" font-size="10" style="text-anchor: middle;">Sep 01</text></g><g class="tick" opacity="1" transform="translate(51.5,0)"><line stroke="currentColor" y2="-717"></line><text fill="#000" y="3" dy="1em" stroke="none" font-size="10" style="text-anchor: middle;">Oct 01</text></g><g class="tick" opacity="1" transform="translate(103.5,0)"><line stroke="currentColor" y2="-717"></line><text fill="#000" y="3" dy="1em" stroke="none" font-size="10" style="text-anchor: middle;">Nov 01</text></g><g class="tick" opacity="1" transform="translate(154.5,0)"><line stroke="currentColor" y2="-717"></line><text fill="#000" y="3" dy="1em" stroke="none" font-size="10" style="text-anchor: middle;">Dec 01</text></g><g class="tick" opacity="1" transform="translate(207.5,0)"><line stroke="currentColor" y2="-717"></line><text fill="#000" y="3" dy="1em" stroke="none" font-size="10" style="text-anchor: middle;">Jan 01</text></g><g class="tick" opacity="1" transform="translate(259.5,0)"><line stroke="currentColor" y2="-717"></line><text fill="#000" y="3" dy="1em" stroke="none" font-size="10" style="text-anchor: middle;">Feb 01</text></g><g class="tick" opacity="1" transform="translate(307.5,0)"><line stroke="currentColor" y2="-717"></line><text fill="#000" y="3" dy="1em" stroke="none" font-size="10" style="text-anchor: middle;">Mar 01</text></g><g class="tick" opacity="1" transform="translate(359.5,0)"><line stroke="currentColor" y2="-717"></line><text fill="#000" y="3" dy="1em" stroke="none" font-size="10" style="text-anchor: middle;">Apr 01</text></g><g class="tick" opacity="1" transform="translate(410.5,0)"><line stroke="currentColor" y2="-717"></line><text fill="#000" y="3" dy="1em" stroke="none" font-size="10" style="text-anchor: middle;">May 01</text></g></g><g><rect x="0" y="48" width="546.5" height="18" class="section section0"></rect><rect x="0" y="66" width="546.5" height="18" class="section section0"></rect><rect x="0" y="84" width="546.5" height="18" class="section section1"></rect><rect x="0" y="102" width="546.5" height="18" class="section section1"></rect><rect x="0" y="120" width="546.5" height="18" class="section section1"></rect><rect x="0" y="138" width="546.5" height="18" class="section section1"></rect><rect x="0" y="156" width="546.5" height="18" class="section section1"></rect><rect x="0" y="174" width="546.5" height="18" class="section section2"></rect><rect x="0" y="192" width="546.5" height="18" class="section section2"></rect><rect x="0" y="210" width="546.5" height="18" class="section section2"></rect><rect x="0" y="228" width="546.5" height="18" class="section section2"></rect><rect x="0" y="246" width="546.5" height="18" class="section section2"></rect><rect x="0" y="264" width="546.5" height="18" class="section section3"></rect><rect x="0" y="282" width="546.5" height="18" class="section section3"></rect><rect x="0" y="300" width="546.5" height="18" class="section section3"></rect><rect x="0" y="318" width="546.5" height="18" class="section section3"></rect><rect x="0" y="336" width="546.5" height="18" class="section section3"></rect><rect x="0" y="354" width="546.5" height="18" class="section section0"></rect><rect x="0" y="372" width="546.5" height="18" class="section section0"></rect><rect x="0" y="390" width="546.5" height="18" class="section section0"></rect><rect x="0" y="408" width="546.5" height="18" class="section section0"></rect><rect x="0" y="426" width="546.5" height="18" class="section section0"></rect><rect x="0" y="444" width="546.5" height="18" class="section section0"></rect><rect x="0" y="462" width="546.5" height="18" class="section section1"></rect><rect x="0" y="480" width="546.5" height="18" class="section section1"></rect><rect x="0" y="498" width="546.5" height="18" class="section section1"></rect><rect x="0" y="516" width="546.5" height="18" class="section section1"></rect><rect x="0" y="534" width="546.5" height="18" class="section section1"></rect><rect x="0" y="552" width="546.5" height="18" class="section section1"></rect><rect x="0" y="570" width="546.5" height="18" class="section section2"></rect><rect x="0" y="588" width="546.5" height="18" class="section section2"></rect><rect x="0" y="606" width="546.5" height="18" class="section section2"></rect><rect x="0" y="624" width="546.5" height="18" class="section section2"></rect><rect x="0" y="642" width="546.5" height="18" class="section section2"></rect><rect x="0" y="660" width="546.5" height="18" class="section section3"></rect><rect x="0" y="678" width="546.5" height="18" class="section section3"></rect><rect x="0" y="696" width="546.5" height="18" class="section section3"></rect><rect x="0" y="714" width="546.5" height="18" class="section section0"></rect><rect x="0" y="732" width="546.5" height="18" class="section section0"></rect></g><g><rect id="init1" rx="3" ry="3" x="75" y="50" width="20" height="14" transform-origin="87px 57px" class="task task0"></rect><rect id="init2" rx="3" ry="3" x="99" y="68" width="8" height="14" transform-origin="105px 75px" class="task task0"></rect><rect id="a-plan" rx="3" ry="3" x="111" y="86" width="3" height="14" transform-origin="112.5px 93px" class="task task1"></rect><rect id="a-des" rx="3" ry="3" x="114" y="104" width="3" height="14" transform-origin="115.5px 111px" class="task task1"></rect><rect id="a-dev" rx="3" ry="3" x="117" y="122" width="21" height="14" transform-origin="127.5px 129px" class="task task1"></rect><rect id="a-test" rx="3" ry="3" x="138" y="140" width="3" height="14" transform-origin="139.5px 147px" class="task task1"></rect><rect id="a-eval" rx="3" ry="3" x="141" y="158" width="2" height="14" transform-origin="143.5px 165px" class="task task1"></rect><rect id="w-plan" rx="3" ry="3" x="146" y="176" width="2" height="14" transform-origin="147px 183px" class="task task2"></rect><rect id="w-des" rx="3" ry="3" x="148" y="194" width="3" height="14" transform-origin="149.5px 201px" class="task task2"></rect><rect id="w-dev" rx="3" ry="3" x="151" y="212" width="22" height="14" transform-origin="162px 219px" class="task task2"></rect><rect id="w-test" rx="3" ry="3" x="173" y="230" width="4" height="14" transform-origin="175px 237px" class="task task2"></rect><rect id="w-eval" rx="3" ry="3" x="177" y="248" width="1" height="14" transform-origin="179.5px 255px" class="task task2"></rect><rect id="f-plan" rx="3" ry="3" x="182" y="266" width="2" height="14" transform-origin="183px 273px" class="task task3"></rect><rect id="f-des" rx="3" ry="3" x="184" y="284" width="3" height="14" transform-origin="185.5px 291px" class="task task3"></rect><rect id="f-dev" rx="3" ry="3" x="187" y="302" width="15" height="14" transform-origin="196.5px 309px" class="task task3"></rect><rect id="f-test" rx="3" ry="3" x="206" y="320" width="3" height="14" transform-origin="207.5px 327px" class="task task3"></rect><rect id="f-eval" rx="3" ry="3" x="209" y="338" width="2" height="14" transform-origin="210px 345px" class="task task3"></rect><rect id="i-res" rx="3" ry="3" x="211" y="356" width="8" height="14" transform-origin="215px 363px" class="task task0"></rect><rect id="i-plan" rx="3" ry="3" x="219" y="374" width="2" height="14" transform-origin="220px 381px" class="task task0"></rect><rect id="i-des" rx="3" ry="3" x="221" y="392" width="3" height="14" transform-origin="222.5px 399px" class="task task0"></rect><rect id="i-dev" rx="3" ry="3" x="224" y="410" width="34" height="14" transform-origin="241px 417px" class="task task0"></rect><rect id="i-test" rx="3" ry="3" x="258" y="428" width="9" height="14" transform-origin="262.5px 435px" class="task task0"></rect><rect id="i-eval" rx="3" ry="3" x="267" y="446" width="1" height="14" transform-origin="267.5px 453px" class="task task0"></rect><rect id="r-res" rx="3" ry="3" x="268" y="464" width="5" height="14" transform-origin="272.5px 471px" class="task task1"></rect><rect id="r-plan" rx="3" ry="3" x="277" y="482" width="1" height="14" transform-origin="277.5px 489px" class="task task1"></rect><rect id="r-des" rx="3" ry="3" x="278" y="500" width="4" height="14" transform-origin="280px 507px" class="task task1"></rect><rect id="r-dev" rx="3" ry="3" x="282" y="518" width="24" height="14" transform-origin="294px 525px" class="task task1"></rect><rect id="r-test" rx="3" ry="3" x="306" y="536" width="3" height="14" transform-origin="309px 543px" class="task task1"></rect><rect id="r-eval" rx="3" ry="3" x="312" y="554" width="2" height="14" transform-origin="313px 561px" class="task task1"></rect><rect id="v-plan" rx="3" ry="3" x="314" y="572" width="2" height="14" transform-origin="315px 579px" class="task task2"></rect><rect id="v-des" rx="3" ry="3" x="316" y="590" width="3" height="14" transform-origin="317.5px 597px" class="task task2"></rect><rect id="v-dev" rx="3" ry="3" x="319" y="608" width="20" height="14" transform-origin="329px 615px" class="task task2"></rect><rect id="v-test" rx="3" ry="3" x="339" y="626" width="4" height="14" transform-origin="341px 633px" class="task task2"></rect><rect id="v-eval" rx="3" ry="3" x="343" y="644" width="2" height="14" transform-origin="345.5px 651px" class="task task2"></rect><rect id="p-dev" rx="3" ry="3" x="348" y="662" width="7" height="14" transform-origin="351.5px 669px" class="task task3"></rect><rect id="p-test" rx="3" ry="3" x="355" y="680" width="8" height="14" transform-origin="359px 687px" class="task task3"></rect><rect id="p-eval" rx="3" ry="3" x="363" y="698" width="4" height="14" transform-origin="365px 705px" class="task task3"></rect><rect id="int" rx="3" ry="3" x="467" y="716" width="15" height="14" transform-origin="474.5px 723px" class="task task0"></rect><rect id="wrap" rx="3" ry="3" x="478" y="734" width="31" height="14" transform-origin="493.5px 741px" class="task task0"></rect><text id="init1-text" font-size="11" x="100" y="60.5" class="taskTextOutsideRight taskTextOutside0  width-103.08529663085938">Research &amp; planning              </text><text id="init2-text" font-size="11" x="112" y="78.5" class="taskTextOutsideRight taskTextOutside0  width-135.383056640625">Initial design (architecture)    </text><text id="a-plan-text" font-size="11" x="119" y="96.5" class="taskTextOutsideRight taskTextOutside1  width-21.890625">Plan                             </text><text id="a-des-text" font-size="11" x="122" y="114.5" class="taskTextOutsideRight taskTextOutside1  width-119.44415283203125">Design (schema, routes)          </text><text id="a-dev-text" font-size="11" x="143" y="132.5" class="taskTextOutsideRight taskTextOutside1  width-40.53125">Develop                          </text><text id="a-test-text" font-size="11" x="146" y="150.5" class="taskTextOutsideRight taskTextOutside1  width-20.2138671875">Test                             </text><text id="a-eval-text" font-size="11" x="148" y="168.5" class="taskTextOutsideRight taskTextOutside1  width-42.18974304199219">Evaluate                         </text><text id="w-plan-text" font-size="11" x="153" y="186.5" class="taskTextOutsideRight taskTextOutside2  width-21.890625">Plan                             </text><text id="w-des-text" font-size="11" x="156" y="204.5" class="taskTextOutsideRight taskTextOutside2  width-33.484375">Design                           </text><text id="w-dev-text" font-size="11" x="178" y="222.5" class="taskTextOutsideRight taskTextOutside2  width-136.24102783203125">Develop (CRUD, share, fork)      </text><text id="w-test-text" font-size="11" x="182" y="240.5" class="taskTextOutsideRight taskTextOutside2  width-20.2138671875">Test                             </text><text id="w-eval-text" font-size="11" x="183" y="258.5" class="taskTextOutsideRight taskTextOutside2  width-42.18974304199219">Evaluate                         </text><text id="f-plan-text" font-size="11" x="189" y="276.5" class="taskTextOutsideRight taskTextOutside3  width-21.890625">Plan                             </text><text id="f-des-text" font-size="11" x="192" y="294.5" class="taskTextOutsideRight taskTextOutside3  width-33.484375">Design                           </text><text id="f-dev-text" font-size="11" x="207" y="312.5" class="taskTextOutsideRight taskTextOutside3  width-154.01690673828125">Develop (.psc CRUD, mobile UI)   </text><text id="f-test-text" font-size="11" x="214" y="330.5" class="taskTextOutsideRight taskTextOutside3  width-20.2138671875">Test                             </text><text id="f-eval-text" font-size="11" x="216" y="348.5" class="taskTextOutsideRight taskTextOutside3  width-42.18975830078125">Evaluate                         </text><text id="i-res-text" font-size="11" x="224" y="366.5" class="taskTextOutsideRight taskTextOutside0  width-170.1875">Research lexer/parser approaches </text><text id="i-plan-text" font-size="11" x="226" y="384.5" class="taskTextOutsideRight taskTextOutside0  width-21.890625">Plan                             </text><text id="i-des-text" font-size="11" x="229" y="402.5" class="taskTextOutsideRight taskTextOutside0  width-54.454620361328125">Design AST                       </text><text id="i-dev-text" font-size="11" x="263" y="420.5" class="taskTextOutsideRight taskTextOutside0  width-40.53125">Develop                          </text><text id="i-test-text" font-size="11" x="272" y="438.5" class="taskTextOutsideRight taskTextOutside0  width-116.7161865234375">Test (sample programs)           </text><text id="i-eval-text" font-size="11" x="273" y="456.5" class="taskTextOutsideRight taskTextOutside0  width-42.18975830078125">Evaluate                         </text><text id="r-res-text" font-size="11" x="278" y="474.5" class="taskTextOutsideRight taskTextOutside1  width-133.390625">Research Yjs / CRDT model        </text><text id="r-plan-text" font-size="11" x="283" y="492.5" class="taskTextOutsideRight taskTextOutside1  width-21.890625">Plan                             </text><text id="r-des-text" font-size="11" x="287" y="510.5" class="taskTextOutsideRight taskTextOutside1  width-133.1170654296875">Design (room model, auth)        </text><text id="r-dev-text" font-size="11" x="311" y="528.5" class="taskTextOutsideRight taskTextOutside1  width-136.1199951171875">Develop (hook + WS server)       </text><text id="r-test-text" font-size="11" x="314" y="546.5" class="taskTextOutsideRight taskTextOutside1  width-118.4981689453125">Test (two-browser sync)          </text><text id="r-eval-text" font-size="11" x="319" y="564.5" class="taskTextOutsideRight taskTextOutside1  width-42.18975830078125">Evaluate                         </text><text id="v-plan-text" font-size="11" x="321" y="582.5" class="taskTextOutsideRight taskTextOutside2  width-21.890625">Plan                             </text><text id="v-des-text" font-size="11" x="324" y="600.5" class="taskTextOutsideRight taskTextOutside2  width-139.43099975585938">Design (FileVersion schema)      </text><text id="v-dev-text" font-size="11" x="344" y="618.5" class="taskTextOutsideRight taskTextOutside2  width-145.59097290039062">Develop (history drawer, diff)   </text><text id="v-test-text" font-size="11" x="348" y="636.5" class="taskTextOutsideRight taskTextOutside2  width-125.45013427734375">Test (restore, attribution)      </text><text id="v-eval-text" font-size="11" x="350" y="654.5" class="taskTextOutsideRight taskTextOutside2  width-42.18975830078125">Evaluate                         </text><text id="p-dev-text" font-size="11" x="360" y="672.5" class="taskTextOutsideRight taskTextOutside3  width-104.359375">Deploy Vercel + Fly.io           </text><text id="p-test-text" font-size="11" x="368" y="690.5" class="taskTextOutsideRight taskTextOutside3  width-136.28125">Mobile-viewport regression       </text><text id="p-eval-text" font-size="11" x="372" y="708.5" class="taskTextOutsideRight taskTextOutside3  width-137.59197998046875">Perf measurement &amp; tuning        </text><text id="int-text" font-size="11" x="462" y="726.5" class="taskTextOutsideLeft taskTextOutside0">Integration testing              </text><text id="wrap-text" font-size="11" x="473" y="744.5" class="taskTextOutsideLeft taskTextOutside0">CritE evaluation writeup         </text></g><g><text dy="0em" x="10" y="68" font-size="11" class="sectionTitle sectionTitle0"><tspan alignment-baseline="central" x="10">Init</tspan></text><text dy="0em" x="10" y="131" font-size="11" class="sectionTitle sectionTitle1"><tspan alignment-baseline="central" x="10">Authentication (SC1, SC9)</tspan></text><text dy="0em" x="10" y="221" font-size="11" class="sectionTitle sectionTitle2"><tspan alignment-baseline="central" x="10">Workspace mgmt (SC3, SC4, SC7)</tspan></text><text dy="0em" x="10" y="311" font-size="11" class="sectionTitle sectionTitle3"><tspan alignment-baseline="central" x="10">File mgmt (SC3, SC8)</tspan></text><text dy="0em" x="10" y="410" font-size="11" class="sectionTitle sectionTitle0"><tspan alignment-baseline="central" x="10">Pseudocode interpreter (SC2)</tspan></text><text dy="0em" x="10" y="518" font-size="11" class="sectionTitle sectionTitle1"><tspan alignment-baseline="central" x="10">Realtime co-edit (SC5)</tspan></text><text dy="0em" x="10" y="617" font-size="11" class="sectionTitle sectionTitle2"><tspan alignment-baseline="central" x="10">Version control (SC6)</tspan></text><text dy="0em" x="10" y="689" font-size="11" class="sectionTitle sectionTitle3"><tspan alignment-baseline="central" x="10">Platform &amp; perf (SC10)</tspan></text><text dy="0em" x="10" y="734" font-size="11" class="sectionTitle sectionTitle0"><tspan alignment-baseline="central" x="10">Wrap-up</tspan></text></g><g class="today"><line x1="518" x2="518" y1="25" y2="777" class="today"></line></g><text x="292" y="25" class="titleText">AccountMVP — IA project timeline</text></svg>